<svg width="40" height="40" viewBox="0 0 40 40" fill="none" xmlns="http://www.w3.org/2000/svg">
<g clip-path="url(#clip0_32_8)">
<path d="M20 40C31.0457 40 40 31.0457 40 20C40 8.95431 31.0457 0 20 0C8.95431 0 0 8.95431 0 20C0 31.0457 8.95431 40 20 40Z" fill="white"/>
<path d="M12.3525 19.9206L16.0325 21.1703L24.7704 15.8286C24.8972 15.7514 25.0269 15.9233 24.9177 16.0239L18.3028 22.1126L18.0572 25.5211C18.0531 25.5783 18.0665 25.6352 18.0957 25.6845C18.1248 25.7337 18.1681 25.7731 18.2201 25.7971C18.2721 25.8211 18.3301 25.8288 18.3865 25.8192C18.4429 25.8095 18.4951 25.7828 18.536 25.7428L20.5725 23.74L24.296 26.5583C24.6972 26.8623 25.2784 26.648 25.3864 26.1565L27.9789 14.3851C28.1269 13.7136 27.4687 13.1468 26.8269 13.3924L12.3342 18.9423C11.8794 19.1165 11.892 19.764 12.3525 19.9206Z" fill="black"/>
</g>
<defs>
<clipPath id="clip0_32_8">
<rect width="40" height="40" fill="white"/>
</clipPath>
</defs>
</svg>
