<svg width="40" height="40" viewBox="0 0 40 40" fill="none" xmlns="http://www.w3.org/2000/svg">
<g clip-path="url(#clip0_32_11)">
<path d="M20 40C31.0457 40 40 31.0457 40 20C40 8.95431 31.0457 0 20 0C8.95431 0 0 8.95431 0 20C0 31.0457 8.95431 40 20 40Z" fill="white"/>
<mask id="mask0_32_11" style="mask-type:luminance" maskUnits="userSpaceOnUse" x="12" y="12" width="16" height="16">
<path d="M28 12H12V28H28V12Z" fill="white"/>
</mask>
<g mask="url(#mask0_32_11)">
<path d="M20.002 12H19.998C15.5871 12 12 15.588 12 20C12 21.75 12.564 23.372 13.5231 24.6891L12.526 27.6611L15.6011 26.678C16.866 27.516 18.3749 28 20.002 28C24.4129 28 28 24.4109 28 20C28 15.5891 24.4129 12 20.002 12ZM24.6571 23.2969C24.464 23.842 23.698 24.294 23.0871 24.426C22.6689 24.5149 22.1229 24.586 20.2849 23.824C17.934 22.85 16.42 20.4609 16.302 20.306C16.1891 20.1509 15.352 19.0411 15.352 17.8931C15.352 16.7451 15.9351 16.186 16.17 15.946C16.3631 15.7491 16.682 15.6589 16.988 15.6589C17.0869 15.6589 17.176 15.664 17.256 15.668C17.4909 15.678 17.6089 15.692 17.764 16.0631C17.9571 16.528 18.4271 17.676 18.4829 17.794C18.54 17.912 18.5971 18.072 18.5171 18.2269C18.442 18.3871 18.376 18.458 18.258 18.594C18.14 18.73 18.028 18.834 17.91 18.98C17.802 19.1069 17.68 19.2431 17.816 19.478C17.952 19.708 18.422 20.4749 19.114 21.0909C20.0069 21.886 20.7309 22.14 20.99 22.248C21.1829 22.328 21.4131 22.3091 21.554 22.1591C21.7329 21.966 21.954 21.646 22.1789 21.3311C22.3391 21.1051 22.5411 21.0769 22.7531 21.1569C22.9691 21.232 24.112 21.7969 24.3471 21.914C24.582 22.032 24.7369 22.088 24.794 22.1871C24.85 22.286 24.85 22.7509 24.6571 23.2969Z" fill="black"/>
</g>
</g>
<defs>
<clipPath id="clip0_32_11">
<rect width="40" height="40" fill="white"/>
</clipPath>
</defs>
</svg>
